# xmcd CD database file
#
# Track frame offsets:
#	150
#	9990
#	24694
#	35887
#	45589
#	58679
#	76759
#	91963
#	110965
#	122489
#	158252
#	174163
#	197816
#	221441
#	239825
#	262004
#	277246
#	296600
#	316187
#	329960
#
# Disc length: 4604 seconds
#
# Revision: 0
# Processed by: cddbd v1.5.1PL0 Copyright (c) Steve Scherf et al.
# Submitted via: CDex 1.51
#
DISCID=2611fa14
DTITLE=Brian Auger - Get Auger-nized. The Anthology. Disc 1
DYEAR=2004
DGENRE=Jazz
TTITLE0=Fool Killer
TTITLE1=Green Onions '65
TTITLE2=Tiger
TTITLE3=Red Beans and Rice
TTITLE4=Break It Up
TTITLE5=Save Me (Parts 1 and 2)
TTITLE6=Black Cat
TTITLE7=Tramp
TTITLE8=A Kind Of Love In
TTITLE9=Season Of The Witch
TTITLE10=This Wheel's On Fire
TTITLE11=Road To Cairo
TTITLE12=A Day In The Life
TTITLE13=George Bruno Money
TTITLE14=Bumpin' On Sunset
TTITLE15=What You Gonna Do?
TTITLE16=Take Me To The Water
TTITLE17=Light My Fire
TTITLE18=Flesh Failures (Let The Sunshine In)
TTITLE19=Indian Rope Man
EXTD=YEAR: 2004
EXTT0=
EXTT1=
EXTT2=
EXTT3=
EXTT4=
EXTT5=
EXTT6=
EXTT7=
EXTT8=
EXTT9=
EXTT10=
EXTT11=
EXTT12=
EXTT13=
EXTT14=
EXTT15=
EXTT16=
EXTT17=
EXTT18=
EXTT19=
PLAYORDER=
